<svg xmlns="http://www.w3.org/2000/svg" width="700" height="700"><path d="M188.291 237.01c16.006-16.816 37.237-26.639 62.18-26.639 48.592 0 80.81 35.479 86.973 88.627 1.998 17.26 1.98 41.594 1.96 69.78-.003 2.89-.004 5.821-.004 8.789v105.586h-66.823v-78.095s-.136-66.838-.545-79.33c-1.793-54.404-34.001-88.59-83.748-88.626-15.008 15.857-23.05 35.245-24.236 64.89-.163 4.135-.122 18.79-.068 38.106.028 10.008.06 21.268.068 32.962.05 50.903 0 110.104 0 110.104H97.225V362.978c0-4.119-.076-8.272-.15-12.441-.152-8.388-.305-16.84.15-25.209.755-13.951 3.168-27.666 9.678-40.407 14.902-29.19 45.436-47.983 77.987-47.983 1.137 0 2.275.026 3.401.07zM602.775 374.673c.455-8.369.302-16.822.151-25.208-.075-4.17-.15-8.323-.15-12.441V216.837h-66.823s-.05 59.2 0 110.103c.008 11.695.04 22.953.067 32.961.055 19.317.096 33.973-.067 38.108-1.186 29.646-9.228 49.033-24.237 64.89-49.745-.034-81.953-34.222-83.747-88.626-.408-12.492-.581-43.49-.581-79.393v-78.094l-66.773.06v105.587c0 2.968-.003 5.898-.004 8.79-.021 28.185-.039 52.518 1.96 69.779 6.15 53.149 38.367 88.627 86.959 88.627 24.944 0 46.175-9.823 62.181-26.639a87.89 87.89 0 0 0 3.4.07c32.55 0 63.085-18.793 77.987-47.982 6.51-12.742 8.923-26.456 9.678-40.408z" class="Path-xrtkpd-0 eqfYiR" style="stroke-width:8.72683239;fill:#fff;fill-opacity:1"/><path style="opacity:1;vector-effect:none;fill:#fff;fill-opacity:1;fill-rule:evenodd;stroke:none;stroke-width:.3471534;stroke-linecap:butt;stroke-linejoin:miter;stroke-miterlimit:4;stroke-dasharray:none;stroke-dashoffset:0;stroke-opacity:1;paint-order:fill markers stroke" d="M-4.224 741.571h725.56v727.639H-4.224z"/><path d="M215.51 1004.972c14.158-14.944 32.939-23.674 55.003-23.674 42.983 0 71.482 31.53 76.934 78.766 1.768 15.34 1.752 36.965 1.734 62.014v101.649h-59.11v-69.405s-.121-59.4-.482-70.502c-1.587-48.352-30.077-78.733-74.082-78.766-13.276 14.093-20.39 31.324-21.44 57.67-.144 3.675-.107 16.7-.06 33.866.025 8.895.053 18.901.06 29.295.046 45.239 0 97.853 0 97.853h-59.11v-106.814c0-3.66-.067-7.351-.133-11.057-.134-7.454-.269-14.966.133-22.403.668-12.4 2.803-24.589 8.562-35.912 13.181-25.94 40.191-42.643 68.986-42.643 1.005 0 2.012.023 3.008.062zM582.154 1127.318c.402-7.438.267-14.95.134-22.403-.067-3.706-.134-7.397-.134-11.057V987.044h-59.11s-.044 52.614 0 97.852c.01 10.394.035 20.4.06 29.294.048 17.167.084 30.192-.06 33.867-1.049 26.347-8.163 43.578-21.44 57.67-44.003-.03-72.493-30.414-74.08-78.765-.361-11.102-.514-38.65-.514-70.558v-69.405l-59.067.054v101.649c-.019 25.05-.033 46.675 1.734 62.015 5.44 47.235 33.94 78.766 76.923 78.766 22.065 0 40.846-8.73 55.004-23.675.995.039 2.001.062 3.007.062 28.794 0 55.804-16.702 68.986-42.643 5.759-11.324 7.893-23.513 8.561-35.912z" class="Path-xrtkpd-0 eqfYiR" style="fill:#fff;stroke-width:7.7376771"/></svg>
